<mxfile host="app.diagrams.net" modified="2023-06-16T06:38:20.067Z" agent="Mozilla/5.0 (Macintosh; Intel Mac OS X 10_15_7) AppleWebKit/537.36 (KHTML, like Gecko) Chrome/114.0.0.0 Safari/537.36" version="21.2.9" etag="5QGc1LZHVMWr9XRXQ5ym" type="github">
  <diagram name="Page-1" id="zfiSnTQGBdr6wGRAeKch">
    <mxGraphModel>
      <root>
        <mxCell id="0" />
        <mxCell id="1" parent="0" />
      </root>
    </mxGraphModel>
  </diagram>
</mxfile>
